<?xml version="1.0" standalone="no"?>
<!DOCTYPE svg PUBLIC "-//W3C//DTD SVG 20010904//EN"
 "http://www.w3.org/TR/2001/REC-SVG-20010904/DTD/svg10.dtd">
<svg version="1.0" xmlns="http://www.w3.org/2000/svg"
 width="200.000000pt" height="200.000000pt" viewBox="0 0 200.000000 200.000000"
 preserveAspectRatio="xMidYMid meet">
<metadata>
Created by potrace 1.15, written by Peter Selinger 2001-2017
</metadata>
<g transform="translate(0.000000,200.000000) scale(0.100000,-0.100000)"
fill="#000000" stroke="none">
<path d="M1115 1655 c-284 -76 -563 -327 -716 -640 -61 -127 -89 -225 -96
-345 -10 -165 35 -281 127 -328 85 -44 226 -12 342 78 169 130 261 359 217
535 -16 63 -76 129 -133 145 -96 27 -192 -7 -276 -96 -33 -36 -60 -62 -60 -59
0 19 113 223 171 310 115 171 232 290 344 348 51 27 71 31 136 32 66 0 80 -3
118 -28 50 -33 77 -86 87 -170 l7 -56 27 14 c53 28 72 63 68 127 -5 67 -28 99
-93 129 -49 23 -194 25 -270 4z m-316 -632 c40 -48 55 -117 48 -217 -7 -93
-47 -239 -84 -307 -70 -129 -181 -183 -252 -123 -88 73 -80 334 14 512 62 116
127 172 201 172 37 0 47 -5 73 -37z"/>
<path d="M1607 1436 c-189 -158 -334 -243 -586 -347 -44 -18 -12 -22 36 -4 70
26 254 119 319 160 31 20 57 35 59 33 1 -2 -85 -178 -191 -393 -107 -214 -194
-394 -194 -399 0 -16 141 5 329 49 50 12 10 15 -53 4 -37 -6 -69 -9 -72 -7 -6
7 81 197 275 600 94 196 171 359 171 362 0 15 -21 2 -93 -58z"/>
</g>
</svg>
